<svg xmlns="http://www.w3.org/2000/svg" xmlns:xlink="http://www.w3.org/1999/xlink" viewBox="0 0 32 32" version="1.1" role="img" aria-labelledby="at-svg-symbaloo-2" style="fill: rgb(255, 255, 255); width: 20px; height: 20px;" class="at-icon at-icon-symbaloo"><title id="at-svg-symbaloo-2">Symbaloo</title><g><path d="M10.79 6.36H7.08a.76.76 0 0 0-.76.76v3.71c0 .42.34.76.76.76h3.71c.42 0 .76-.34.76-.76V7.12a.76.76 0 0 0-.76-.76zM17.89 6.36h-3.71a.76.76 0 0 0-.76.76v3.71c0 .42.34.76.76.76h3.71c.42 0 .76-.34.76-.76V7.12a.76.76 0 0 0-.76-.76zM24.99 6.36h-3.71a.76.76 0 0 0-.76.76v3.71c0 .42.34.76.76.76h3.71c.42 0 .76-.34.76-.76V7.12a.76.76 0 0 0-.76-.76zM10.79 13.39H7.08a.76.76 0 0 0-.76.76v3.71c0 .42.34.76.76.76h3.71c.42 0 .76-.34.76-.76v-3.71a.76.76 0 0 0-.76-.76zM17.89 13.39h-3.71a.76.76 0 0 0-.76.76v3.71c0 .42.34.76.76.76h3.71c.42 0 .76-.34.76-.76v-3.71a.76.76 0 0 0-.76-.76zM24.99 13.39h-3.71a.76.76 0 0 0-.76.76v3.71c0 .42.34.76.76.76h3.71c.42 0 .76-.34.76-.76v-3.71a.76.76 0 0 0-.76-.76zM10.79 20.41H7.08a.76.76 0 0 0-.76.76v3.71c0 .42.34.76.76.76h3.71c.42 0 .76-.34.76-.76v-3.71a.76.76 0 0 0-.76-.76zM17.89 20.41h-3.71a.76.76 0 0 0-.76.76v3.71c0 .42.34.76.76.76h3.71c.42 0 .76-.34.76-.76v-3.71a.76.76 0 0 0-.76-.76zM24.99 20.41h-3.71a.76.76 0 0 0-.76.76v3.71c0 .42.34.76.76.76h3.71c.42 0 .76-.34.76-.76v-3.71a.76.76 0 0 0-.76-.76z"></path></g></svg>